<svg width="150" height="44" viewBox="0 0 150 44" fill="none" xmlns="http://www.w3.org/2000/svg">
<path d="M44.2174 14.6956L42.7569 21.1427C42.6329 21.6904 42.1107 22.0337 41.583 21.9144L40.3881 21.6444C39.8503 21.5229 39.5106 20.9677 39.6317 20.4082L41.0248 13.9731C40.6665 13.5612 32.6627 15.1211 32.5737 15.0758C32.4846 15.0306 32.9535 13.0864 33.0404 12.9008C33.1272 12.7152 42.1254 8.55936 42.3881 8.23344C42.6509 7.90751 43.3216 3.88341 43.5387 3.41943C43.7559 2.95545 44.607 1.51022 45.4061 1.68671C46.1985 1.8932 46.3967 3.54512 46.3967 4.06134C46.3967 4.57756 45.307 8.50087 45.4061 8.91385C45.5051 9.32683 51.8448 17.1734 51.8448 17.3799C51.8448 17.5864 51.4485 19.5481 51.3495 19.5481C51.2504 19.5481 44.7127 14.4891 44.2174 14.6956Z" fill="white"/>
<path d="M39.4743 25.0636C38.9477 24.9382 38.4218 25.2757 38.292 25.8222L36.8779 31.7794L35.8971 36.6355C35.8103 37.0649 35.226 37.0757 35.1247 36.6498L34.0363 32.0697L25.5517 1.65654C25.4287 1.21562 25.0411 0.912364 24.6005 0.912364H22.9926C22.5533 0.912364 22.1664 1.21392 22.0423 1.65314L13.448 32.0697L12.347 36.5765C12.2429 37.0027 11.6568 36.9866 11.5744 36.5553L10.662 31.7794L3.42908 1.65248C3.32347 1.2126 2.95529 0.896124 2.52046 0.881854C2.0809 0.867428 1.49504 0.854766 0.911804 0.861925C0.298845 0.869449 -0.120558 1.47683 0.0311861 2.09587L9.91442 42.4143C10.0265 42.8714 10.4215 43.1911 10.8742 43.1911H12.653C13.0915 43.1911 13.4779 42.8906 13.6026 42.4524L22.8088 10.1173L23.4326 7.51653C23.5324 7.10084 24.0985 7.09892 24.2008 7.51392L24.8426 10.1173L33.8291 42.446C33.9518 42.8874 34.3397 43.1911 34.7806 43.1911H36.5549C37.0073 43.1911 37.4022 42.8717 37.5145 42.4149L41.3994 26.6089C41.5377 26.0462 41.2037 25.4755 40.6605 25.3461L39.4743 25.0636Z" fill="white"/>
<path d="M52.2447 43.4927C50.0101 43.4927 48.1963 42.7618 46.8033 41.2998C45.42 39.8278 44.7284 37.8717 44.7284 35.4318V34.9781C44.7284 33.3447 45.0282 31.8878 45.628 30.6073C46.2374 29.3167 47.0887 28.3135 48.1818 27.5977C49.2749 26.8818 50.4938 26.5239 51.8384 26.5239C53.9762 26.5239 55.6255 27.2347 56.7864 28.6563C57.9568 30.078 58.5421 32.0894 58.5421 34.6907V36.1728H48.2834C48.3898 37.5239 48.8202 38.5926 49.5748 39.3791C50.339 40.1655 51.2967 40.5587 52.4478 40.5587C54.0633 40.5587 55.3789 39.8782 56.3946 38.517L58.2954 40.4075C57.6666 41.3855 56.8251 42.1467 55.7706 42.6912C54.7259 43.2256 53.5506 43.4927 52.2447 43.4927ZM51.8239 29.473C50.8565 29.473 50.073 29.8259 49.4732 30.5317C48.8831 31.2375 48.5059 32.2205 48.3414 33.4808H55.0596V33.2086C54.9823 31.9785 54.6679 31.0509 54.1165 30.4258C53.5651 29.7906 52.8009 29.473 51.8239 29.473Z" fill="white"/>
<path d="M68.2059 43.4927C65.9713 43.4927 64.1575 42.7618 62.7646 41.2998C61.3813 39.8278 60.6896 37.8717 60.6896 35.4318V34.9781C60.6896 33.3447 60.9895 31.8878 61.5892 30.6073C62.1987 29.3167 63.0499 28.3135 64.143 27.5977C65.2361 26.8818 66.455 26.5239 67.7996 26.5239C69.9375 26.5239 71.5868 27.2347 72.7476 28.6563C73.9181 30.078 74.5033 32.0894 74.5033 34.6907V36.1728H64.2446C64.351 37.5239 64.7815 38.5926 65.536 39.3791C66.3002 40.1655 67.2579 40.5587 68.409 40.5587C70.0245 40.5587 71.3401 39.8782 72.3558 38.517L74.2567 40.4075C73.6279 41.3855 72.7863 42.1467 71.7319 42.6912C70.6871 43.2256 69.5118 43.4927 68.2059 43.4927ZM67.7851 29.473C66.8178 29.473 66.0342 29.8259 65.4344 30.5317C64.8444 31.2375 64.4671 32.2205 64.3027 33.4808H71.0209V33.2086C70.9435 31.9785 70.6291 31.0509 70.0777 30.4258C69.5263 29.7906 68.7621 29.473 67.7851 29.473Z" fill="white"/>
<path d="M82.3534 36.1728L80.7863 37.8516V43.1903H77.2603V19.9602H80.7863V33.3598L81.889 31.9231L86.2276 26.8264H90.4646L84.6315 33.6472L91.0885 43.1903H87.0111L82.3534 36.1728Z" fill="white"/>
<path d="M99.4029 43.4927C97.1683 43.4927 95.3545 42.7618 93.9615 41.2998C92.5782 39.8278 91.8866 37.8717 91.8866 35.4318V34.9781C91.8866 33.3447 92.1865 31.8878 92.7862 30.6073C93.3956 29.3167 94.2469 28.3135 95.34 27.5977C96.4331 26.8818 97.652 26.5239 98.9966 26.5239C101.134 26.5239 102.784 27.2347 103.945 28.6563C105.115 30.078 105.7 32.0894 105.7 34.6907V36.1728H95.4416C95.548 37.5239 95.9785 38.5926 96.733 39.3791C97.4972 40.1655 98.4549 40.5587 99.606 40.5587C101.221 40.5587 102.537 39.8782 103.553 38.517L105.454 40.4075C104.825 41.3855 103.983 42.1467 102.929 42.6912C101.884 43.2256 100.709 43.4927 99.4029 43.4927ZM98.9821 29.473C98.0147 29.473 97.2312 29.8259 96.6314 30.5317C96.0413 31.2375 95.6641 32.2205 95.4996 33.4808H102.218V33.2086C102.14 31.9785 101.826 31.0509 101.275 30.4258C100.723 29.7906 99.9591 29.473 98.9821 29.473Z" fill="white"/>
<path d="M111.722 26.8264L111.824 28.7168C112.984 27.2549 114.508 26.5239 116.394 26.5239C119.664 26.5239 121.328 28.4748 121.386 32.3768V43.1903H117.86V32.5885C117.86 31.55 117.642 30.7837 117.207 30.2897C116.781 29.7856 116.08 29.5335 115.103 29.5335C113.681 29.5335 112.622 30.204 111.925 31.545V43.1903H108.399V26.8264H111.722Z" fill="white"/>
<path d="M124.331 34.8873C124.331 32.3667 124.892 30.3451 126.015 28.8227C127.137 27.2901 128.641 26.5239 130.527 26.5239C132.191 26.5239 133.536 27.1288 134.561 28.3387V19.9602H138.087V43.1903H134.895L134.721 41.4964C133.666 42.8273 132.259 43.4927 130.498 43.4927C128.66 43.4927 127.171 42.7214 126.029 41.1788C124.897 39.6362 124.331 37.539 124.331 34.8873ZM127.857 35.2049C127.857 36.8685 128.162 38.1692 128.772 39.1068C129.391 40.0344 130.266 40.4982 131.398 40.4982C132.839 40.4982 133.894 39.8278 134.561 38.4868V31.4996C133.913 30.1889 132.868 29.5335 131.427 29.5335C130.285 29.5335 129.405 30.0074 128.786 30.9551C128.167 31.8928 127.857 33.3094 127.857 35.2049Z" fill="white"/>
<path d="M149.985 30.1838C149.521 30.1032 149.042 30.0628 148.549 30.0628C146.934 30.0628 145.845 30.7081 145.284 31.9987V43.1903H141.758V26.8264H145.125L145.212 28.6563C146.063 27.2347 147.243 26.5239 148.752 26.5239C149.255 26.5239 149.671 26.5945 150 26.7356L149.985 30.1838Z" fill="white"/>
</svg>
